<mxfile host="app.diagrams.net" agent="Mozilla/5.0 (X11; Linux x86_64) AppleWebKit/537.36 (KHTML, like Gecko) Chrome/133.0.0.0 Safari/537.36" version="26.0.16">
  <diagram name="Page-1" id="FCnqHagMyv4X_OXk-pM8">
    <mxGraphModel dx="1574" dy="895" grid="1" gridSize="10" guides="1" tooltips="1" connect="1" arrows="1" fold="1" page="1" pageScale="1" pageWidth="1200" pageHeight="1920" math="0" shadow="0">
      <root>
        <mxCell id="0" />
        <mxCell id="1" parent="0" />
        <mxCell id="63Ll801zCgnvZhfwUPhv-1" value="" style="whiteSpace=wrap;html=1;aspect=fixed;" vertex="1" parent="1">
          <mxGeometry x="110" y="70" width="890" height="890" as="geometry" />
        </mxCell>
        <mxCell id="63Ll801zCgnvZhfwUPhv-4" value="admin&lt;div&gt;&lt;br&gt;&lt;/div&gt;" style="shape=umlActor;verticalLabelPosition=bottom;verticalAlign=top;html=1;outlineConnect=0;fillColor=#ffcd28;gradientColor=#ffa500;strokeColor=#d79b00;" vertex="1" parent="1">
          <mxGeometry x="60" y="704.5" width="30" height="60" as="geometry" />
        </mxCell>
        <mxCell id="63Ll801zCgnvZhfwUPhv-13" value="Voir les produit" style="ellipse;whiteSpace=wrap;html=1;fillColor=#dae8fc;gradientColor=light-dark(#7EA6E0,#FF3A3A);strokeColor=#6c8ebf;" vertex="1" parent="1">
          <mxGeometry x="175" y="340" width="170" height="40" as="geometry" />
        </mxCell>
        <mxCell id="63Ll801zCgnvZhfwUPhv-15" value="Créer Profil&lt;span style=&quot;color: rgba(0, 0, 0, 0); font-family: monospace; font-size: 0px; text-align: start; text-wrap-mode: nowrap;&quot;&gt;%3CmxGraphModel%3E%3Croot%3E%3CmxCell%20id%3D%220%22%2F%3E%3CmxCell%20id%3D%221%22%20parent%3D%220%22%2F%3E%3CmxCell%20id%3D%222%22%20value%3D%22R%C3%A9server%20Billet%22%20style%3D%22ellipse%3BwhiteSpace%3Dwrap%3Bhtml%3D1%3BfillColor%3D%23dae8fc%3BgradientColor%3D%237ea6e0%3BstrokeColor%3D%236c8ebf%3B%22%20vertex%3D%221%22%20parent%3D%221%22%3E%3CmxGeometry%20x%3D%22180%22%20y%3D%22330%22%20width%3D%22170%22%20height%3D%2240%22%20as%3D%22geometry%22%2F%3E%3C%2FmxCell%3E%3C%2Froot%3E%3C%2FmxGraphModel%3E&lt;/span&gt;" style="ellipse;whiteSpace=wrap;html=1;fillColor=#dae8fc;gradientColor=light-dark(#7EA6E0,#FF3A3A);strokeColor=#6c8ebf;" vertex="1" parent="1">
          <mxGeometry x="180" y="390" width="170" height="40" as="geometry" />
        </mxCell>
        <mxCell id="63Ll801zCgnvZhfwUPhv-16" value="add to bag" style="ellipse;whiteSpace=wrap;html=1;fillColor=#dae8fc;gradientColor=light-dark(#7EA6E0,#FF3A3A);strokeColor=#6c8ebf;" vertex="1" parent="1">
          <mxGeometry x="180" y="440" width="170" height="40" as="geometry" />
        </mxCell>
        <mxCell id="63Ll801zCgnvZhfwUPhv-17" value="" style="endArrow=none;html=1;rounded=0;exitX=0.5;exitY=0.5;exitDx=0;exitDy=0;exitPerimeter=0;entryX=0;entryY=0.5;entryDx=0;entryDy=0;fillColor=#dae8fc;gradientColor=#7ea6e0;strokeColor=#6c8ebf;" edge="1" parent="1" target="63Ll801zCgnvZhfwUPhv-13">
          <mxGeometry width="50" height="50" relative="1" as="geometry">
            <mxPoint x="75" y="430" as="sourcePoint" />
            <mxPoint x="460" y="280" as="targetPoint" />
          </mxGeometry>
        </mxCell>
        <mxCell id="63Ll801zCgnvZhfwUPhv-18" value="" style="endArrow=none;html=1;rounded=0;exitX=0.5;exitY=0.5;exitDx=0;exitDy=0;exitPerimeter=0;entryX=0;entryY=0.5;entryDx=0;entryDy=0;fillColor=#dae8fc;gradientColor=#7ea6e0;strokeColor=#6c8ebf;" edge="1" parent="1" target="63Ll801zCgnvZhfwUPhv-15">
          <mxGeometry width="50" height="50" relative="1" as="geometry">
            <mxPoint x="75" y="430" as="sourcePoint" />
            <mxPoint x="190" y="360" as="targetPoint" />
          </mxGeometry>
        </mxCell>
        <mxCell id="63Ll801zCgnvZhfwUPhv-19" value="Sign in" style="ellipse;whiteSpace=wrap;html=1;fillColor=light-dark(#008A00,#FFFFFF);fontColor=#ffffff;strokeColor=#005700;" vertex="1" parent="1">
          <mxGeometry x="800" y="410" width="120" height="80" as="geometry" />
        </mxCell>
        <mxCell id="63Ll801zCgnvZhfwUPhv-20" value="include" style="endArrow=open;endSize=12;dashed=1;html=1;rounded=0;exitX=1;exitY=0.5;exitDx=0;exitDy=0;fillColor=#0050ef;strokeColor=#001DBC;" edge="1" parent="1" source="63Ll801zCgnvZhfwUPhv-13">
          <mxGeometry width="160" relative="1" as="geometry">
            <mxPoint x="350" y="440" as="sourcePoint" />
            <mxPoint x="800" y="450" as="targetPoint" />
            <Array as="points">
              <mxPoint x="590" y="390" />
            </Array>
          </mxGeometry>
        </mxCell>
        <mxCell id="63Ll801zCgnvZhfwUPhv-21" value="Modifier info" style="ellipse;whiteSpace=wrap;html=1;fillColor=#dae8fc;strokeColor=#6c8ebf;" vertex="1" parent="1">
          <mxGeometry x="420" y="390" width="120" height="40" as="geometry" />
        </mxCell>
        <mxCell id="63Ll801zCgnvZhfwUPhv-22" value="extends" style="endArrow=open;endSize=12;dashed=1;html=1;rounded=0;entryX=1;entryY=0.5;entryDx=0;entryDy=0;exitX=0;exitY=0.5;exitDx=0;exitDy=0;" edge="1" parent="1" source="63Ll801zCgnvZhfwUPhv-21" target="63Ll801zCgnvZhfwUPhv-15">
          <mxGeometry width="160" relative="1" as="geometry">
            <mxPoint x="490" y="400" as="sourcePoint" />
            <mxPoint x="350" y="390" as="targetPoint" />
          </mxGeometry>
        </mxCell>
        <mxCell id="63Ll801zCgnvZhfwUPhv-23" value="include" style="endArrow=open;endSize=12;dashed=1;html=1;rounded=0;exitX=0.951;exitY=0.802;exitDx=0;exitDy=0;exitPerimeter=0;fillColor=#0050ef;strokeColor=#001DBC;" edge="1" parent="1" source="63Ll801zCgnvZhfwUPhv-15">
          <mxGeometry width="160" relative="1" as="geometry">
            <mxPoint x="352" y="370" as="sourcePoint" />
            <mxPoint x="800" y="450" as="targetPoint" />
            <Array as="points">
              <mxPoint x="570" y="450" />
            </Array>
          </mxGeometry>
        </mxCell>
        <mxCell id="63Ll801zCgnvZhfwUPhv-24" value="include" style="endArrow=open;endSize=12;dashed=1;html=1;rounded=0;exitX=1;exitY=0.5;exitDx=0;exitDy=0;fillColor=#0050ef;strokeColor=#001DBC;" edge="1" parent="1" source="63Ll801zCgnvZhfwUPhv-16">
          <mxGeometry width="160" relative="1" as="geometry">
            <mxPoint x="352" y="422" as="sourcePoint" />
            <mxPoint x="800" y="450" as="targetPoint" />
            <Array as="points">
              <mxPoint x="580" y="460" />
            </Array>
          </mxGeometry>
        </mxCell>
        <mxCell id="63Ll801zCgnvZhfwUPhv-25" value="gérer un produit" style="ellipse;whiteSpace=wrap;html=1;fillColor=light-dark(#ffcd28, #9c9191);gradientColor=#ffa500;strokeColor=#d79b00;" vertex="1" parent="1">
          <mxGeometry x="190" y="690" width="170" height="40" as="geometry" />
        </mxCell>
        <mxCell id="63Ll801zCgnvZhfwUPhv-26" value="" style="endArrow=none;html=1;rounded=0;exitX=0.5;exitY=0.5;exitDx=0;exitDy=0;exitPerimeter=0;entryX=0;entryY=0.5;entryDx=0;entryDy=0;fillColor=#ffcd28;gradientColor=#ffa500;strokeColor=#d79b00;" edge="1" parent="1" source="63Ll801zCgnvZhfwUPhv-4" target="63Ll801zCgnvZhfwUPhv-25">
          <mxGeometry width="50" height="50" relative="1" as="geometry">
            <mxPoint x="330" y="440" as="sourcePoint" />
            <mxPoint x="380" y="390" as="targetPoint" />
          </mxGeometry>
        </mxCell>
        <mxCell id="63Ll801zCgnvZhfwUPhv-27" value="exporter la list des vents" style="ellipse;whiteSpace=wrap;html=1;fillColor=light-dark(#ffcd28, #9c9191);gradientColor=#ffa500;strokeColor=#d79b00;" vertex="1" parent="1">
          <mxGeometry x="190" y="740" width="170" height="40" as="geometry" />
        </mxCell>
        <mxCell id="63Ll801zCgnvZhfwUPhv-28" value="Voir statistique" style="ellipse;whiteSpace=wrap;html=1;fillColor=light-dark(#ffcd28, #9c9191);gradientColor=#ffa500;strokeColor=#d79b00;" vertex="1" parent="1">
          <mxGeometry x="190" y="790" width="170" height="40" as="geometry" />
        </mxCell>
        <mxCell id="63Ll801zCgnvZhfwUPhv-29" value="" style="endArrow=none;html=1;rounded=0;exitX=0.5;exitY=0.5;exitDx=0;exitDy=0;exitPerimeter=0;entryX=0;entryY=0.5;entryDx=0;entryDy=0;fillColor=#ffcd28;gradientColor=#ffa500;strokeColor=#d79b00;" edge="1" parent="1" source="63Ll801zCgnvZhfwUPhv-4" target="63Ll801zCgnvZhfwUPhv-27">
          <mxGeometry width="50" height="50" relative="1" as="geometry">
            <mxPoint x="85" y="625" as="sourcePoint" />
            <mxPoint x="200" y="570" as="targetPoint" />
          </mxGeometry>
        </mxCell>
        <mxCell id="63Ll801zCgnvZhfwUPhv-30" value="" style="endArrow=none;html=1;rounded=0;exitX=0.5;exitY=0.5;exitDx=0;exitDy=0;exitPerimeter=0;entryX=0;entryY=0.5;entryDx=0;entryDy=0;fillColor=#ffcd28;gradientColor=#ffa500;strokeColor=#d79b00;" edge="1" parent="1" source="63Ll801zCgnvZhfwUPhv-4" target="63Ll801zCgnvZhfwUPhv-28">
          <mxGeometry width="50" height="50" relative="1" as="geometry">
            <mxPoint x="85" y="625" as="sourcePoint" />
            <mxPoint x="200" y="615" as="targetPoint" />
          </mxGeometry>
        </mxCell>
        <mxCell id="63Ll801zCgnvZhfwUPhv-31" value="include" style="endArrow=open;endSize=12;dashed=1;html=1;rounded=0;exitX=1;exitY=0.5;exitDx=0;exitDy=0;fillColor=#0050ef;strokeColor=#001DBC;" edge="1" parent="1" source="63Ll801zCgnvZhfwUPhv-25">
          <mxGeometry width="160" relative="1" as="geometry">
            <mxPoint x="360" y="520" as="sourcePoint" />
            <mxPoint x="800" y="450" as="targetPoint" />
            <Array as="points">
              <mxPoint x="600" y="480" />
            </Array>
          </mxGeometry>
        </mxCell>
        <mxCell id="63Ll801zCgnvZhfwUPhv-32" value="include" style="endArrow=open;endSize=12;dashed=1;html=1;rounded=0;exitX=1;exitY=0.5;exitDx=0;exitDy=0;fillColor=#0050ef;strokeColor=#001DBC;" edge="1" parent="1" source="63Ll801zCgnvZhfwUPhv-27">
          <mxGeometry width="160" relative="1" as="geometry">
            <mxPoint x="370" y="570" as="sourcePoint" />
            <mxPoint x="800" y="450" as="targetPoint" />
            <Array as="points">
              <mxPoint x="610" y="490" />
            </Array>
          </mxGeometry>
        </mxCell>
        <mxCell id="63Ll801zCgnvZhfwUPhv-33" value="include" style="endArrow=open;endSize=12;dashed=1;html=1;rounded=0;exitX=1;exitY=0.5;exitDx=0;exitDy=0;fillColor=#0050ef;strokeColor=#001DBC;" edge="1" parent="1" source="63Ll801zCgnvZhfwUPhv-28">
          <mxGeometry width="160" relative="1" as="geometry">
            <mxPoint x="370" y="615" as="sourcePoint" />
            <mxPoint x="800" y="450" as="targetPoint" />
            <Array as="points">
              <mxPoint x="620" y="500" />
            </Array>
          </mxGeometry>
        </mxCell>
        <mxCell id="63Ll801zCgnvZhfwUPhv-46" value="Use Case" style="html=1;shadow=0;dashed=0;align=center;verticalAlign=middle;shape=mxgraph.arrows2.arrow;dy=0;dx=10;notch=0;fillColor=light-dark(#a20025, #bc294c);fontColor=#ffffff;strokeColor=#6F0000;" vertex="1" parent="1">
          <mxGeometry x="110" y="70" width="280" height="40" as="geometry" />
        </mxCell>
        <mxCell id="63Ll801zCgnvZhfwUPhv-47" value="cooker" style="shape=umlActor;verticalLabelPosition=bottom;verticalAlign=top;html=1;outlineConnect=0;fillColor=#f5f5f5;gradientColor=light-dark(#B3B3B3,#990000);strokeColor=#666666;" vertex="1" parent="1">
          <mxGeometry x="60" y="400" width="30" height="60" as="geometry" />
        </mxCell>
        <mxCell id="63Ll801zCgnvZhfwUPhv-48" value="commandes les prduits" style="ellipse;whiteSpace=wrap;html=1;fillColor=#dae8fc;gradientColor=light-dark(#7EA6E0,#FF3A3A);strokeColor=#6c8ebf;" vertex="1" parent="1">
          <mxGeometry x="180" y="490" width="170" height="40" as="geometry" />
        </mxCell>
        <mxCell id="63Ll801zCgnvZhfwUPhv-49" value="" style="endArrow=none;html=1;rounded=0;exitX=0.5;exitY=0.5;exitDx=0;exitDy=0;exitPerimeter=0;entryX=0;entryY=0.5;entryDx=0;entryDy=0;fillColor=#dae8fc;gradientColor=#7ea6e0;strokeColor=#6c8ebf;" edge="1" parent="1">
          <mxGeometry width="50" height="50" relative="1" as="geometry">
            <mxPoint x="75" y="430" as="sourcePoint" />
            <mxPoint x="180" y="460" as="targetPoint" />
          </mxGeometry>
        </mxCell>
        <mxCell id="63Ll801zCgnvZhfwUPhv-50" value="" style="endArrow=none;html=1;rounded=0;exitX=0.5;exitY=0.5;exitDx=0;exitDy=0;exitPerimeter=0;entryX=0;entryY=0.5;entryDx=0;entryDy=0;fillColor=#dae8fc;gradientColor=#7ea6e0;strokeColor=#6c8ebf;" edge="1" parent="1" source="63Ll801zCgnvZhfwUPhv-47" target="63Ll801zCgnvZhfwUPhv-48">
          <mxGeometry width="50" height="50" relative="1" as="geometry">
            <mxPoint x="85" y="440" as="sourcePoint" />
            <mxPoint x="190" y="470" as="targetPoint" />
          </mxGeometry>
        </mxCell>
        <mxCell id="63Ll801zCgnvZhfwUPhv-51" value="&lt;font style=&quot;font-size: 10px;&quot;&gt;ajouter les les produit aux favorites&lt;/font&gt;" style="ellipse;whiteSpace=wrap;html=1;fillColor=#dae8fc;strokeColor=#6c8ebf;" vertex="1" parent="1">
          <mxGeometry x="530" y="270" width="120" height="40" as="geometry" />
        </mxCell>
        <mxCell id="63Ll801zCgnvZhfwUPhv-52" value="extends" style="endArrow=open;endSize=12;dashed=1;html=1;rounded=0;entryX=1;entryY=0;entryDx=0;entryDy=0;exitX=0;exitY=0.5;exitDx=0;exitDy=0;" edge="1" parent="1" source="63Ll801zCgnvZhfwUPhv-51" target="63Ll801zCgnvZhfwUPhv-13">
          <mxGeometry width="160" relative="1" as="geometry">
            <mxPoint x="430" y="420" as="sourcePoint" />
            <mxPoint x="360" y="420" as="targetPoint" />
          </mxGeometry>
        </mxCell>
        <mxCell id="63Ll801zCgnvZhfwUPhv-53" value="ajouter un produits" style="ellipse;whiteSpace=wrap;html=1;fillColor=#f0a30a;strokeColor=#BD7000;fontColor=#000000;" vertex="1" parent="1">
          <mxGeometry x="310" y="600" width="120" height="40" as="geometry" />
        </mxCell>
        <mxCell id="63Ll801zCgnvZhfwUPhv-54" value="modifier un produit" style="ellipse;whiteSpace=wrap;html=1;fillColor=#f0a30a;strokeColor=#BD7000;fontColor=#000000;" vertex="1" parent="1">
          <mxGeometry x="140" y="600" width="120" height="40" as="geometry" />
        </mxCell>
        <mxCell id="63Ll801zCgnvZhfwUPhv-55" value="supprimer un produits" style="ellipse;whiteSpace=wrap;html=1;fillColor=#f0a30a;strokeColor=#BD7000;fontColor=#000000;" vertex="1" parent="1">
          <mxGeometry x="220" y="550" width="120" height="40" as="geometry" />
        </mxCell>
        <mxCell id="63Ll801zCgnvZhfwUPhv-56" value="extends" style="endArrow=open;endSize=12;dashed=1;html=1;rounded=0;entryX=1;entryY=0;entryDx=0;entryDy=0;exitX=0.5;exitY=1;exitDx=0;exitDy=0;" edge="1" parent="1" source="63Ll801zCgnvZhfwUPhv-53" target="63Ll801zCgnvZhfwUPhv-25">
          <mxGeometry width="160" relative="1" as="geometry">
            <mxPoint x="430" y="420" as="sourcePoint" />
            <mxPoint x="360" y="420" as="targetPoint" />
          </mxGeometry>
        </mxCell>
        <mxCell id="63Ll801zCgnvZhfwUPhv-57" value="extends" style="endArrow=open;endSize=12;dashed=1;html=1;rounded=0;exitX=0.5;exitY=1;exitDx=0;exitDy=0;entryX=0;entryY=0;entryDx=0;entryDy=0;" edge="1" parent="1" source="63Ll801zCgnvZhfwUPhv-54" target="63Ll801zCgnvZhfwUPhv-25">
          <mxGeometry width="160" relative="1" as="geometry">
            <mxPoint x="400" y="520" as="sourcePoint" />
            <mxPoint x="360" y="590" as="targetPoint" />
          </mxGeometry>
        </mxCell>
        <mxCell id="63Ll801zCgnvZhfwUPhv-58" value="extends" style="endArrow=open;endSize=12;dashed=1;html=1;rounded=0;exitX=0.5;exitY=1;exitDx=0;exitDy=0;entryX=0.5;entryY=0;entryDx=0;entryDy=0;" edge="1" parent="1" source="63Ll801zCgnvZhfwUPhv-55" target="63Ll801zCgnvZhfwUPhv-25">
          <mxGeometry width="160" relative="1" as="geometry">
            <mxPoint x="520" y="615" as="sourcePoint" />
            <mxPoint x="370" y="600" as="targetPoint" />
          </mxGeometry>
        </mxCell>
        <mxCell id="63Ll801zCgnvZhfwUPhv-66" value="user" style="swimlane;fontStyle=1;align=center;verticalAlign=top;childLayout=stackLayout;horizontal=1;startSize=26;horizontalStack=0;resizeParent=1;resizeParentMax=0;resizeLast=0;collapsible=1;marginBottom=0;whiteSpace=wrap;html=1;" vertex="1" parent="1">
          <mxGeometry x="520" y="1150" width="160" height="190" as="geometry" />
        </mxCell>
        <mxCell id="63Ll801zCgnvZhfwUPhv-70" value="+ id : int" style="text;strokeColor=none;fillColor=none;align=left;verticalAlign=top;spacingLeft=4;spacingRight=4;overflow=hidden;rotatable=0;points=[[0,0.5],[1,0.5]];portConstraint=eastwest;whiteSpace=wrap;html=1;" vertex="1" parent="63Ll801zCgnvZhfwUPhv-66">
          <mxGeometry y="26" width="160" height="26" as="geometry" />
        </mxCell>
        <mxCell id="63Ll801zCgnvZhfwUPhv-67" value="+ name : int" style="text;strokeColor=none;fillColor=none;align=left;verticalAlign=top;spacingLeft=4;spacingRight=4;overflow=hidden;rotatable=0;points=[[0,0.5],[1,0.5]];portConstraint=eastwest;whiteSpace=wrap;html=1;" vertex="1" parent="63Ll801zCgnvZhfwUPhv-66">
          <mxGeometry y="52" width="160" height="26" as="geometry" />
        </mxCell>
        <mxCell id="63Ll801zCgnvZhfwUPhv-71" value="+ role : enum&lt;div&gt;&lt;br&gt;&lt;/div&gt;" style="text;strokeColor=none;fillColor=none;align=left;verticalAlign=top;spacingLeft=4;spacingRight=4;overflow=hidden;rotatable=0;points=[[0,0.5],[1,0.5]];portConstraint=eastwest;whiteSpace=wrap;html=1;" vertex="1" parent="63Ll801zCgnvZhfwUPhv-66">
          <mxGeometry y="78" width="160" height="26" as="geometry" />
        </mxCell>
        <mxCell id="63Ll801zCgnvZhfwUPhv-68" value="" style="line;strokeWidth=1;fillColor=none;align=left;verticalAlign=middle;spacingTop=-1;spacingLeft=3;spacingRight=3;rotatable=0;labelPosition=right;points=[];portConstraint=eastwest;strokeColor=inherit;" vertex="1" parent="63Ll801zCgnvZhfwUPhv-66">
          <mxGeometry y="104" width="160" height="8" as="geometry" />
        </mxCell>
        <mxCell id="63Ll801zCgnvZhfwUPhv-69" value="+ register()&lt;div&gt;&lt;br&gt;&lt;/div&gt;" style="text;strokeColor=none;fillColor=none;align=left;verticalAlign=top;spacingLeft=4;spacingRight=4;overflow=hidden;rotatable=0;points=[[0,0.5],[1,0.5]];portConstraint=eastwest;whiteSpace=wrap;html=1;" vertex="1" parent="63Ll801zCgnvZhfwUPhv-66">
          <mxGeometry y="112" width="160" height="26" as="geometry" />
        </mxCell>
        <mxCell id="63Ll801zCgnvZhfwUPhv-72" value="+ login()" style="text;strokeColor=none;fillColor=none;align=left;verticalAlign=top;spacingLeft=4;spacingRight=4;overflow=hidden;rotatable=0;points=[[0,0.5],[1,0.5]];portConstraint=eastwest;whiteSpace=wrap;html=1;" vertex="1" parent="63Ll801zCgnvZhfwUPhv-66">
          <mxGeometry y="138" width="160" height="26" as="geometry" />
        </mxCell>
        <mxCell id="63Ll801zCgnvZhfwUPhv-73" value="+ logout" style="text;strokeColor=none;fillColor=none;align=left;verticalAlign=top;spacingLeft=4;spacingRight=4;overflow=hidden;rotatable=0;points=[[0,0.5],[1,0.5]];portConstraint=eastwest;whiteSpace=wrap;html=1;" vertex="1" parent="63Ll801zCgnvZhfwUPhv-66">
          <mxGeometry y="164" width="160" height="26" as="geometry" />
        </mxCell>
        <mxCell id="63Ll801zCgnvZhfwUPhv-74" value="products" style="swimlane;fontStyle=1;align=center;verticalAlign=top;childLayout=stackLayout;horizontal=1;startSize=26;horizontalStack=0;resizeParent=1;resizeParentMax=0;resizeLast=0;collapsible=1;marginBottom=0;whiteSpace=wrap;html=1;" vertex="1" parent="1">
          <mxGeometry x="530" y="1640" width="160" height="138" as="geometry" />
        </mxCell>
        <mxCell id="63Ll801zCgnvZhfwUPhv-75" value="+ id : int" style="text;strokeColor=none;fillColor=none;align=left;verticalAlign=top;spacingLeft=4;spacingRight=4;overflow=hidden;rotatable=0;points=[[0,0.5],[1,0.5]];portConstraint=eastwest;whiteSpace=wrap;html=1;" vertex="1" parent="63Ll801zCgnvZhfwUPhv-74">
          <mxGeometry y="26" width="160" height="26" as="geometry" />
        </mxCell>
        <mxCell id="63Ll801zCgnvZhfwUPhv-76" value="+ name : int" style="text;strokeColor=none;fillColor=none;align=left;verticalAlign=top;spacingLeft=4;spacingRight=4;overflow=hidden;rotatable=0;points=[[0,0.5],[1,0.5]];portConstraint=eastwest;whiteSpace=wrap;html=1;" vertex="1" parent="63Ll801zCgnvZhfwUPhv-74">
          <mxGeometry y="52" width="160" height="26" as="geometry" />
        </mxCell>
        <mxCell id="63Ll801zCgnvZhfwUPhv-77" value="+ prix : int" style="text;strokeColor=none;fillColor=none;align=left;verticalAlign=top;spacingLeft=4;spacingRight=4;overflow=hidden;rotatable=0;points=[[0,0.5],[1,0.5]];portConstraint=eastwest;whiteSpace=wrap;html=1;" vertex="1" parent="63Ll801zCgnvZhfwUPhv-74">
          <mxGeometry y="78" width="160" height="26" as="geometry" />
        </mxCell>
        <mxCell id="63Ll801zCgnvZhfwUPhv-78" value="" style="line;strokeWidth=1;fillColor=none;align=left;verticalAlign=middle;spacingTop=-1;spacingLeft=3;spacingRight=3;rotatable=0;labelPosition=right;points=[];portConstraint=eastwest;strokeColor=inherit;" vertex="1" parent="63Ll801zCgnvZhfwUPhv-74">
          <mxGeometry y="104" width="160" height="8" as="geometry" />
        </mxCell>
        <mxCell id="63Ll801zCgnvZhfwUPhv-79" value="+ showdetails()" style="text;strokeColor=none;fillColor=none;align=left;verticalAlign=top;spacingLeft=4;spacingRight=4;overflow=hidden;rotatable=0;points=[[0,0.5],[1,0.5]];portConstraint=eastwest;whiteSpace=wrap;html=1;" vertex="1" parent="63Ll801zCgnvZhfwUPhv-74">
          <mxGeometry y="112" width="160" height="26" as="geometry" />
        </mxCell>
        <mxCell id="63Ll801zCgnvZhfwUPhv-82" value="admin" style="swimlane;fontStyle=1;align=center;verticalAlign=top;childLayout=stackLayout;horizontal=1;startSize=26;horizontalStack=0;resizeParent=1;resizeParentMax=0;resizeLast=0;collapsible=1;marginBottom=0;whiteSpace=wrap;html=1;" vertex="1" parent="1">
          <mxGeometry x="690" y="1440" width="160" height="86" as="geometry" />
        </mxCell>
        <mxCell id="63Ll801zCgnvZhfwUPhv-86" value="" style="line;strokeWidth=1;fillColor=none;align=left;verticalAlign=middle;spacingTop=-1;spacingLeft=3;spacingRight=3;rotatable=0;labelPosition=right;points=[];portConstraint=eastwest;strokeColor=inherit;" vertex="1" parent="63Ll801zCgnvZhfwUPhv-82">
          <mxGeometry y="26" width="160" height="8" as="geometry" />
        </mxCell>
        <mxCell id="63Ll801zCgnvZhfwUPhv-87" value="+ add product()" style="text;strokeColor=none;fillColor=none;align=left;verticalAlign=top;spacingLeft=4;spacingRight=4;overflow=hidden;rotatable=0;points=[[0,0.5],[1,0.5]];portConstraint=eastwest;whiteSpace=wrap;html=1;" vertex="1" parent="63Ll801zCgnvZhfwUPhv-82">
          <mxGeometry y="34" width="160" height="26" as="geometry" />
        </mxCell>
        <mxCell id="63Ll801zCgnvZhfwUPhv-88" value="+ delet product()" style="text;strokeColor=none;fillColor=none;align=left;verticalAlign=top;spacingLeft=4;spacingRight=4;overflow=hidden;rotatable=0;points=[[0,0.5],[1,0.5]];portConstraint=eastwest;whiteSpace=wrap;html=1;" vertex="1" parent="63Ll801zCgnvZhfwUPhv-82">
          <mxGeometry y="60" width="160" height="26" as="geometry" />
        </mxCell>
        <mxCell id="63Ll801zCgnvZhfwUPhv-90" value="clients" style="swimlane;fontStyle=1;align=center;verticalAlign=top;childLayout=stackLayout;horizontal=1;startSize=26;horizontalStack=0;resizeParent=1;resizeParentMax=0;resizeLast=0;collapsible=1;marginBottom=0;whiteSpace=wrap;html=1;" vertex="1" parent="1">
          <mxGeometry x="345" y="1430" width="160" height="60" as="geometry" />
        </mxCell>
        <mxCell id="63Ll801zCgnvZhfwUPhv-94" value="" style="line;strokeWidth=1;fillColor=none;align=left;verticalAlign=middle;spacingTop=-1;spacingLeft=3;spacingRight=3;rotatable=0;labelPosition=right;points=[];portConstraint=eastwest;strokeColor=inherit;" vertex="1" parent="63Ll801zCgnvZhfwUPhv-90">
          <mxGeometry y="26" width="160" height="8" as="geometry" />
        </mxCell>
        <mxCell id="63Ll801zCgnvZhfwUPhv-95" value="+ achet produits()&lt;div&gt;&lt;br&gt;&lt;/div&gt;" style="text;strokeColor=none;fillColor=none;align=left;verticalAlign=top;spacingLeft=4;spacingRight=4;overflow=hidden;rotatable=0;points=[[0,0.5],[1,0.5]];portConstraint=eastwest;whiteSpace=wrap;html=1;" vertex="1" parent="63Ll801zCgnvZhfwUPhv-90">
          <mxGeometry y="34" width="160" height="26" as="geometry" />
        </mxCell>
        <mxCell id="63Ll801zCgnvZhfwUPhv-98" style="edgeStyle=orthogonalEdgeStyle;rounded=0;orthogonalLoop=1;jettySize=auto;html=1;entryX=0.476;entryY=0.992;entryDx=0;entryDy=0;entryPerimeter=0;" edge="1" parent="1" source="63Ll801zCgnvZhfwUPhv-82" target="63Ll801zCgnvZhfwUPhv-73">
          <mxGeometry relative="1" as="geometry" />
        </mxCell>
        <mxCell id="63Ll801zCgnvZhfwUPhv-99" style="edgeStyle=orthogonalEdgeStyle;rounded=0;orthogonalLoop=1;jettySize=auto;html=1;entryX=0.476;entryY=1.077;entryDx=0;entryDy=0;entryPerimeter=0;" edge="1" parent="1" source="63Ll801zCgnvZhfwUPhv-90" target="63Ll801zCgnvZhfwUPhv-73">
          <mxGeometry relative="1" as="geometry">
            <Array as="points">
              <mxPoint x="425" y="1390" />
              <mxPoint x="596" y="1390" />
            </Array>
          </mxGeometry>
        </mxCell>
        <mxCell id="63Ll801zCgnvZhfwUPhv-100" value="" style="endArrow=none;html=1;rounded=0;exitX=1;exitY=0;exitDx=0;exitDy=0;entryX=0.428;entryY=1.103;entryDx=0;entryDy=0;entryPerimeter=0;" edge="1" parent="1" source="63Ll801zCgnvZhfwUPhv-74" target="63Ll801zCgnvZhfwUPhv-88">
          <mxGeometry width="50" height="50" relative="1" as="geometry">
            <mxPoint x="580" y="1460" as="sourcePoint" />
            <mxPoint x="630" y="1410" as="targetPoint" />
          </mxGeometry>
        </mxCell>
        <mxCell id="63Ll801zCgnvZhfwUPhv-101" value="1" style="text;html=1;align=center;verticalAlign=middle;resizable=0;points=[];autosize=1;strokeColor=none;fillColor=none;" vertex="1" parent="1">
          <mxGeometry x="755" y="1526" width="30" height="30" as="geometry" />
        </mxCell>
        <mxCell id="63Ll801zCgnvZhfwUPhv-102" value="*" style="text;html=1;align=center;verticalAlign=middle;resizable=0;points=[];autosize=1;strokeColor=none;fillColor=none;" vertex="1" parent="1">
          <mxGeometry x="700" y="1630" width="30" height="30" as="geometry" />
        </mxCell>
        <mxCell id="63Ll801zCgnvZhfwUPhv-103" value="order" style="swimlane;fontStyle=1;align=center;verticalAlign=top;childLayout=stackLayout;horizontal=1;startSize=26;horizontalStack=0;resizeParent=1;resizeParentMax=0;resizeLast=0;collapsible=1;marginBottom=0;whiteSpace=wrap;html=1;" vertex="1" parent="1">
          <mxGeometry x="220" y="1630" width="160" height="112" as="geometry" />
        </mxCell>
        <mxCell id="63Ll801zCgnvZhfwUPhv-104" value="+ id : int" style="text;strokeColor=none;fillColor=none;align=left;verticalAlign=top;spacingLeft=4;spacingRight=4;overflow=hidden;rotatable=0;points=[[0,0.5],[1,0.5]];portConstraint=eastwest;whiteSpace=wrap;html=1;" vertex="1" parent="63Ll801zCgnvZhfwUPhv-103">
          <mxGeometry y="26" width="160" height="26" as="geometry" />
        </mxCell>
        <mxCell id="63Ll801zCgnvZhfwUPhv-105" value="+ id_user" style="text;strokeColor=none;fillColor=none;align=left;verticalAlign=top;spacingLeft=4;spacingRight=4;overflow=hidden;rotatable=0;points=[[0,0.5],[1,0.5]];portConstraint=eastwest;whiteSpace=wrap;html=1;" vertex="1" parent="63Ll801zCgnvZhfwUPhv-103">
          <mxGeometry y="52" width="160" height="26" as="geometry" />
        </mxCell>
        <mxCell id="63Ll801zCgnvZhfwUPhv-106" value="+ id_product" style="text;strokeColor=none;fillColor=none;align=left;verticalAlign=top;spacingLeft=4;spacingRight=4;overflow=hidden;rotatable=0;points=[[0,0.5],[1,0.5]];portConstraint=eastwest;whiteSpace=wrap;html=1;" vertex="1" parent="63Ll801zCgnvZhfwUPhv-103">
          <mxGeometry y="78" width="160" height="26" as="geometry" />
        </mxCell>
        <mxCell id="63Ll801zCgnvZhfwUPhv-107" value="" style="line;strokeWidth=1;fillColor=none;align=left;verticalAlign=middle;spacingTop=-1;spacingLeft=3;spacingRight=3;rotatable=0;labelPosition=right;points=[];portConstraint=eastwest;strokeColor=inherit;" vertex="1" parent="63Ll801zCgnvZhfwUPhv-103">
          <mxGeometry y="104" width="160" height="8" as="geometry" />
        </mxCell>
        <mxCell id="63Ll801zCgnvZhfwUPhv-111" value="" style="endArrow=none;html=1;rounded=0;exitX=0.619;exitY=1.035;exitDx=0;exitDy=0;entryX=0.178;entryY=-0.019;entryDx=0;entryDy=0;entryPerimeter=0;exitPerimeter=0;" edge="1" parent="1" source="63Ll801zCgnvZhfwUPhv-95" target="63Ll801zCgnvZhfwUPhv-74">
          <mxGeometry width="50" height="50" relative="1" as="geometry">
            <mxPoint x="700" y="1650" as="sourcePoint" />
            <mxPoint x="768" y="1539" as="targetPoint" />
          </mxGeometry>
        </mxCell>
        <mxCell id="63Ll801zCgnvZhfwUPhv-112" value="" style="endArrow=none;dashed=1;html=1;dashPattern=1 3;strokeWidth=2;rounded=0;exitX=1;exitY=0;exitDx=0;exitDy=0;" edge="1" parent="1" source="63Ll801zCgnvZhfwUPhv-103">
          <mxGeometry width="50" height="50" relative="1" as="geometry">
            <mxPoint x="490" y="1500" as="sourcePoint" />
            <mxPoint x="490" y="1550" as="targetPoint" />
          </mxGeometry>
        </mxCell>
        <mxCell id="63Ll801zCgnvZhfwUPhv-113" value="*" style="text;html=1;align=center;verticalAlign=middle;resizable=0;points=[];autosize=1;strokeColor=none;fillColor=none;" vertex="1" parent="1">
          <mxGeometry x="465" y="1496" width="30" height="30" as="geometry" />
        </mxCell>
        <mxCell id="63Ll801zCgnvZhfwUPhv-114" value="*" style="text;html=1;align=center;verticalAlign=middle;resizable=0;points=[];autosize=1;strokeColor=none;fillColor=none;" vertex="1" parent="1">
          <mxGeometry x="555" y="1600" width="30" height="30" as="geometry" />
        </mxCell>
      </root>
    </mxGraphModel>
  </diagram>
</mxfile>
